<svg xmlns="http://www.w3.org/2000/svg" width="40" height="40" fill="none"><path stroke="#fff" stroke-linecap="round" stroke-linejoin="round" stroke-width="2" d="M20 38.33a18.33 18.33 0 1 0 0-36.66 18.33 18.33 0 0 0 0 36.66Z"/><path stroke="#000" stroke-linecap="round" stroke-linejoin="round" stroke-width="2" d="M15.11 14.18a1.5 1.5 0 0 1 2.3-1.27l9.16 5.82a1.5 1.5 0 0 1 0 2.54l-9.15 5.82a1.5 1.5 0 0 1-2.3-1.27V14.18Z"/><path stroke="#fff" stroke-linecap="round" stroke-linejoin="round" stroke-width="2" d="M15.11 14.18a1.5 1.5 0 0 1 2.3-1.27l9.16 5.82a1.5 1.5 0 0 1 0 2.54l-9.15 5.82a1.5 1.5 0 0 1-2.3-1.27V14.18Z"/></svg>